<svg width="313" height="251" viewBox="0 0 313 251" fill="none" xmlns="http://www.w3.org/2000/svg">
<path d="M257.693 224.237L256.368 223.819C258.256 199.357 262.784 103.13 222.554 52.6055C208.03 34.3661 189.063 23.845 166.161 21.2827C121.674 16.3255 95.2356 55.9835 80.8793 90.1404C65.2502 127.309 60.1587 166.162 60.1066 166.559C60.0648 166.925 59.7101 167.187 59.3553 167.145C58.9902 167.093 58.7189 166.748 58.7711 166.392C58.8233 165.995 63.9251 126.975 79.6273 89.6489C100.473 40.045 130.448 15.949 166.328 19.9545C189.584 22.5377 208.865 33.2575 223.618 51.7688C264.318 102.868 259.571 200.152 257.693 224.237Z" fill="#73D5A8"/>
<path d="M238.829 218.213L229.877 215.358C230.441 179.214 228.834 80.7486 195.687 48.4009C186.673 39.595 176.396 35.4117 164.199 35.5477C145.263 35.7882 117.521 50.2102 93.0128 117.447C77.9784 158.684 79.5851 173.284 79.5121 173.702C79.5121 173.702 73.5546 172.583 71.1445 170.941C75.6622 144.513 95.3186 28.2268 164.074 27.3169C178.566 27.1392 191.316 32.2951 201.937 42.6593C220.268 60.5431 232.235 93.5705 237.514 140.832C240.3 165.817 239.497 200.507 238.829 218.213Z" fill="#E7F7EF"/>
<path d="M216.658 203.352C216.638 203.352 216.617 203.352 216.596 203.352C216.22 203.321 215.949 202.986 215.98 202.62C216.074 201.605 224.609 100.672 192.693 66.1595C185.619 58.504 176.97 54.624 166.985 54.624C166.818 54.624 166.641 54.624 166.474 54.624C118.815 55.2515 98.5322 146.825 93.4512 174.884C93.3886 175.25 93.013 175.48 92.6687 175.428C92.3035 175.365 92.0635 175.01 92.1261 174.644C95.0788 158.329 101.892 126.975 114.266 100.296C128.611 69.3598 146.181 53.5468 166.464 53.2749C177.074 53.1598 186.214 57.1549 193.684 65.2392C226.007 100.191 217.42 201.72 217.326 202.735C217.295 203.09 217.003 203.352 216.658 203.352Z" fill="black"/>
<path d="M172.974 119.936L157.178 121.924C157.178 121.924 148.466 112.009 144.616 101.488C142.363 95.328 140.099 87.3797 144.105 83.5519C145.691 82.0564 147.173 81.2406 148.602 80.9792C149.113 80.8746 149.604 80.8746 150.083 80.906C156.01 81.3871 160.517 91.4584 162.885 100.756C166.266 113.986 172.974 119.936 172.974 119.936Z" fill="white" stroke="#20222A" stroke-width="1.03608" stroke-miterlimit="10" stroke-linecap="round" stroke-linejoin="round"/>
<path d="M150.688 95.6309C150.688 95.6309 157.418 100.253 161.852 98.4232" stroke="#20222A" stroke-width="1.03608" stroke-miterlimit="10" stroke-linecap="round" stroke-linejoin="round"/>
<path d="M148.612 80.9795C149.113 86.4492 149.082 95.3388 144.616 101.488C142.363 95.3283 140.099 87.38 144.105 83.5522C145.701 82.0567 147.183 81.2305 148.612 80.9795Z" fill="#20222A"/>
<path d="M147.59 99.1451C145.576 97.0535 141.82 96.7711 140.798 98.9255C139.765 101.08 140.61 104.05 142.665 105.567C144.115 106.633 146.327 106.466 147.59 104.709" fill="white"/>
<path d="M147.59 99.1451C145.576 97.0535 141.82 96.7711 140.798 98.9255C139.765 101.08 140.61 104.05 142.665 105.567C144.115 106.633 146.327 106.466 147.59 104.709" stroke="#20222A" stroke-width="1.03608" stroke-miterlimit="10" stroke-linecap="round" stroke-linejoin="round"/>
<path d="M143.124 101.08C143.124 101.08 144.637 101.038 145.576 102.346" stroke="#20222A" stroke-width="1.03608" stroke-miterlimit="10" stroke-linecap="round" stroke-linejoin="round"/>
<path d="M137.22 199.252L126.567 207.044L120.881 199.462C118.534 196.648 114.83 195.341 111.251 196.115C108.309 196.742 104.376 198.133 99.3574 200.947C96.2065 202.714 92.3566 203.028 89.164 201.344C88.0998 200.79 87.0773 200.005 86.1905 198.918H86.1801C85.4602 198.039 84.8133 196.962 84.3125 195.623L121.09 174.77L123.051 177.75L137.22 199.252Z" fill="white" stroke="#20222A" stroke-width="1.03608" stroke-miterlimit="10" stroke-linecap="round" stroke-linejoin="round"/>
<path d="M123.051 177.761L86.2009 198.918H86.1801C85.4602 198.039 84.8133 196.962 84.3125 195.623L121.09 174.77L123.051 177.761Z" fill="#73D5A8" stroke="#73D5A8" stroke-width="1.03608" stroke-miterlimit="10"/>
<path d="M116.259 196.365L129.248 187.151" stroke="#20222A" stroke-width="1.03608" stroke-miterlimit="10" stroke-linecap="round" stroke-linejoin="round"/>
<path d="M106.211 191.753C106.211 191.753 102.007 206.269 106.211 208.12C110.416 209.961 110.061 191.753 110.061 191.753" stroke="black" stroke-width="1.03608" stroke-miterlimit="10" stroke-linecap="round" stroke-linejoin="round"/>
<path d="M108.987 192.36C108.987 192.36 108.674 207.765 114.13 207.891C119.587 208.016 113.452 190.875 113.452 190.875" stroke="black" stroke-width="1.03608" stroke-miterlimit="10" stroke-linecap="round" stroke-linejoin="round"/>
<path d="M179.766 181.202L168.884 187.937L163.438 181.411C161.09 178.598 157.387 177.29 153.808 178.064C150.866 178.692 146.932 180.072 141.904 182.896C138.763 184.653 134.913 184.977 131.721 183.293C130.656 182.739 129.634 181.955 128.747 180.867H128.737C128.017 179.989 127.37 178.901 126.869 177.573L163.647 156.719L165.608 159.699L179.766 181.202Z" fill="white" stroke="#20222A" stroke-width="1.03608" stroke-miterlimit="10" stroke-linecap="round" stroke-linejoin="round"/>
<path d="M165.598 159.698L128.737 180.855H128.727C128.007 179.977 127.36 178.889 126.859 177.561L163.637 156.707L165.598 159.698Z" fill="#73D5A8" stroke="#73D5A8" stroke-width="1.03608" stroke-miterlimit="10"/>
<path d="M137.021 87.1079C135.644 71.9851 135.446 57.2703 135.446 57.2703L121.789 53.4111C121.789 53.4111 104.281 92.0233 131.596 141.512C131.596 141.512 147.006 168.536 151.91 188.543C151.91 188.543 157.825 184.308 176.418 165.378C186.141 155.474 198.14 150.287 202.678 156.604L188.666 130.981C222.282 105.358 200.226 53.4111 200.226 53.4111L185.87 58.6717C201.624 104.657 173.611 109.918 173.611 109.918L144.544 118.65C140.537 115.115 138.273 100.944 137.021 87.1079Z" fill="#73D5A8"/>
<path d="M202.678 156.613C202.678 156.613 206.183 162.93 202.678 167.846L196.438 153.863C196.438 153.852 201.519 153.507 202.678 156.613Z" fill="#20222A" stroke="#20222A" stroke-width="1.03608" stroke-miterlimit="10"/>
<path d="M168.362 173.452L202.678 167.836L196.438 153.853C196.438 153.853 186.579 150.287 168.362 173.452Z" fill="white" stroke="#20222A" stroke-width="1.03608" stroke-miterlimit="10" stroke-linecap="round" stroke-linejoin="round"/>
<path d="M202.677 167.846C202.677 167.846 239.1 216.634 221.238 229.623C203.376 242.612 194.278 241.211 185.525 233.137C185.525 233.137 177.908 244.599 163.636 247.8C155.529 249.619 147.067 247.245 140.714 241.88C134.318 236.484 125.846 227.113 119.69 212.074L140.348 196.983L152.952 214.532L151.898 188.553L168.362 173.462L202.677 167.846Z" fill="white" stroke="#20222A" stroke-width="1.03608" stroke-miterlimit="10" stroke-linecap="round" stroke-linejoin="round"/>
<path d="M152.953 214.532V229.268" stroke="#20222A" stroke-width="1.03608" stroke-miterlimit="10" stroke-linecap="round" stroke-linejoin="round"/>
<path d="M185.525 233.127C185.525 233.127 192.839 223.631 185.525 187.142" stroke="#20222A" stroke-width="1.03608" stroke-miterlimit="10" stroke-linecap="round" stroke-linejoin="round"/>
<path d="M188.353 206.165L198.139 221.894" stroke="#20222A" stroke-width="1.03608" stroke-miterlimit="10" stroke-linecap="round" stroke-linejoin="round"/>
<path d="M198.14 168.588C198.14 168.588 201.113 182.529 211.359 180.803" stroke="#20222A" stroke-width="1.03608" stroke-miterlimit="10" stroke-linecap="round" stroke-linejoin="round"/>
<path d="M161.801 179.475C161.801 179.475 165.567 198.373 152.953 197.672" stroke="#20222A" stroke-width="1.03608" stroke-miterlimit="10" stroke-linecap="round" stroke-linejoin="round"/>
<path d="M146.818 205.987L124.438 221.894" stroke="#20222A" stroke-width="1.03608" stroke-miterlimit="10" stroke-linecap="round" stroke-linejoin="round"/>
<path d="M134.924 57.2708C134.924 57.2708 136.719 41.4787 132.472 39.7217C128.226 37.9647 125.951 47.0948 130.187 48.4962C131.846 49.04 133.609 40.2446 126.922 40.2446C120.234 40.2446 123.5 49.1969 125.294 49.3747C127.089 49.5525 127.704 42.1794 123.917 41.2695C119.389 40.1818 119.201 48.4439 122.3 49.4375L122.195 53.4116L134.924 57.2708Z" fill="white" stroke="#20222A" stroke-width="1.03608" stroke-miterlimit="10" stroke-linecap="round" stroke-linejoin="round"/>
<path d="M186.705 58.6824C186.705 58.6824 182.521 51.3093 182.427 46.0488C182.375 43.0577 185.484 41.3739 187.529 43.2668C189.063 44.6787 189.606 49.7301 188.458 50.6191C183.794 54.2063 185.067 38.1945 192.235 42.9845C198.067 46.875 194.655 52.261 192.694 50.504C190.732 48.747 191.233 39.6169 195.688 40.9137C200.143 42.2001 199.413 53.4323 199.413 53.4323L186.705 58.6824Z" fill="white" stroke="#20222A" stroke-width="1.03608" stroke-miterlimit="10" stroke-linecap="round" stroke-linejoin="round"/>
<path d="M110.051 151.813L118.752 157.388" stroke="#20222A" stroke-width="1.03608" stroke-miterlimit="10" stroke-linecap="round" stroke-linejoin="round"/>
<path d="M120.588 150.359L125.752 157.387" stroke="#20222A" stroke-width="1.03608" stroke-miterlimit="10" stroke-linecap="round" stroke-linejoin="round"/>
<path d="M227.989 107.71L225.996 125.092" stroke="#20222A" stroke-width="1.03608" stroke-miterlimit="10" stroke-linecap="round" stroke-linejoin="round"/>
<path d="M231.548 103.568L230.88 112.468" stroke="#20222A" stroke-width="1.03608" stroke-miterlimit="10" stroke-linecap="round" stroke-linejoin="round"/>
<path d="M144.554 118.66L148.059 125.604" stroke="#20222A" stroke-width="1.03608" stroke-miterlimit="10" stroke-linecap="round" stroke-linejoin="round"/>
<path d="M240.415 172.312C240.415 172.312 250.9 177.969 246.529 182.937C242.157 187.894 233.748 181.285 237.838 178.848C243.503 175.47 247.134 187.581 243.284 189.882C239.434 192.182 232.089 191.147 232.986 188.187C234.447 183.387 244.056 185.897 241.615 193.458C239.163 201.02 231.035 202.4 230.847 197.464C230.774 195.623 236.659 191.848 241.896 200.852" stroke="black" stroke-width="1.03608" stroke-miterlimit="10" stroke-linecap="round" stroke-linejoin="round"/>
<path d="M70.8429 94.0732C70.8429 94.0732 69.57 103.852 64.8854 101.959C60.2009 100.066 73.0652 94.4602 68.6414 107.889" stroke="#20222A" stroke-width="1.03608" stroke-miterlimit="10" stroke-linecap="round" stroke-linejoin="round"/>
<path d="M113.953 130.844C112.022 131.335 112.043 131.419 110.103 131.91C108.173 132.402 108.079 132.025 106.138 132.527C104.208 133.019 104.218 133.092 102.288 133.594C100.348 134.086 100.41 134.316 98.4695 134.807C96.5289 135.299 96.4663 135.027 94.5257 135.518C94.2232 135.602 93.931 135.937 93.8371 136.251C93.0546 138.771 93.2216 138.823 92.4391 141.344C91.6566 143.864 91.4688 143.801 90.6758 146.322C90.4567 147.033 91.1975 147.87 91.907 147.692C93.8371 147.2 93.7537 146.866 95.6838 146.374C97.614 145.883 97.6453 145.998 99.5859 145.506C101.516 145.015 101.579 145.245 103.509 144.753C105.449 144.262 105.449 144.251 107.38 143.76C109.32 143.268 109.237 142.965 111.177 142.473C111.48 142.39 111.939 142.39 112.033 142.076C112.815 139.555 112.721 139.524 113.514 137.014C114.297 134.494 114.349 134.514 115.132 131.994C115.382 131.251 114.662 130.666 113.953 130.844Z" fill="#73D5A8"/>
<path d="M113.953 130.844C112.022 131.335 112.043 131.419 110.103 131.91C108.173 132.402 108.079 132.025 106.138 132.527C104.208 133.019 104.218 133.092 102.288 133.594C100.348 134.086 100.41 134.316 98.4695 134.807C96.5289 135.299 96.4663 135.027 94.5257 135.518C94.2232 135.602 93.931 135.937 93.8371 136.251C93.0546 138.771 93.2216 138.823 92.4391 141.344C91.6566 143.864 91.4688 143.801 90.6758 146.322C90.4567 147.033 91.1975 147.87 91.907 147.692C93.8371 147.2 93.7537 146.866 95.6838 146.374C97.614 145.883 97.6453 145.998 99.5859 145.506C101.516 145.015 101.579 145.245 103.509 144.753C105.449 144.262 105.449 144.251 107.38 143.76C109.32 143.268 109.237 142.965 111.177 142.473C111.48 142.39 111.939 142.39 112.033 142.076C112.815 139.555 112.721 139.524 113.514 137.014C114.297 134.494 114.349 134.514 115.132 131.994C115.382 131.251 114.662 130.666 113.953 130.844Z" stroke="#73D5A8" stroke-width="1.03608" stroke-miterlimit="10"/>
<path d="M110.854 112.479C110.573 111.37 109.686 110.889 108.611 111.161C106.42 111.726 106.316 111.329 104.114 111.893C101.913 112.458 101.934 112.531 99.7428 113.096C97.5414 113.661 97.604 113.891 95.4025 114.456C93.2011 115.02 93.1281 114.728 90.9266 115.292C89.852 115.564 89.1634 116.851 89.4451 117.959C89.9459 119.936 90.1337 119.884 90.6345 121.86C91.1353 123.837 90.9371 123.889 91.4379 125.866C91.9387 127.842 91.9178 127.853 92.4186 129.829C92.9194 131.806 93.2741 131.722 93.7749 133.699C94.0566 134.808 94.8913 135.435 95.9659 135.163C98.1569 134.598 98.2195 134.849 100.421 134.285C102.622 133.72 102.622 133.72 104.813 133.155C107.015 132.59 106.931 132.277 109.133 131.712C111.334 131.147 111.428 131.513 113.619 130.948C114.694 130.677 115.361 129.359 115.08 128.25C114.579 126.274 114.631 126.263 114.12 124.287C113.619 122.31 113.734 122.279 113.233 120.302C112.732 118.325 112.722 118.325 112.221 116.338C111.72 114.362 111.522 114.403 111.021 112.427" fill="#73D5A8"/>
<path d="M110.854 112.479C110.573 111.37 109.686 110.889 108.611 111.161C106.42 111.726 106.316 111.329 104.114 111.893C101.913 112.458 101.934 112.531 99.7428 113.096C97.5414 113.661 97.604 113.891 95.4025 114.456C93.2011 115.02 93.1281 114.728 90.9266 115.292C89.852 115.564 89.1634 116.851 89.4451 117.959C89.9459 119.936 90.1337 119.884 90.6345 121.86C91.1353 123.837 90.9371 123.889 91.4379 125.866C91.9387 127.842 91.9178 127.853 92.4186 129.829C92.9194 131.806 93.2741 131.722 93.7749 133.699C94.0566 134.808 94.8913 135.435 95.9659 135.163C98.1569 134.598 98.2195 134.849 100.421 134.285C102.622 133.72 102.622 133.72 104.813 133.155C107.015 132.59 106.931 132.277 109.133 131.712C111.334 131.147 111.428 131.513 113.619 130.948C114.694 130.677 115.361 129.359 115.08 128.25C114.579 126.274 114.631 126.263 114.12 124.287C113.619 122.31 113.734 122.279 113.233 120.302C112.732 118.325 112.722 118.325 112.221 116.338C111.72 114.362 111.522 114.403 111.021 112.427" stroke="#73D5A8" stroke-width="1.03608" stroke-miterlimit="10" stroke-linecap="round" stroke-linejoin="round"/>
<path d="M88.8604 117.363C88.3492 119.424 88.4431 119.444 87.9423 121.505C87.431 123.565 86.972 123.45 86.4712 125.51C85.9599 127.571 86.0538 127.592 85.553 129.652C85.5426 129.715 85.8139 129.756 85.8243 129.809C86.3564 131.921 86.0225 132.005 86.5651 134.118C87.1076 136.23 87.1702 136.209 87.7127 138.322C88.2553 140.434 88.4744 140.382 89.0065 142.495C89.549 144.607 89.309 144.67 89.8516 146.783C89.9455 147.138 90.6654 147.18 90.7801 146.824C91.3435 145.005 90.9471 144.879 91.5105 143.07C92.0843 141.25 92.2199 141.292 92.7938 139.483C93.3676 137.673 93.6389 137.757 94.2127 135.937C94.2336 135.875 94.2336 135.707 94.2127 135.644C93.6284 133.354 93.2633 133.448 92.679 131.158C92.0947 128.867 92.5225 128.752 91.9382 126.462C91.354 124.172 91.2288 124.203 90.6445 121.902C90.0602 119.612 90.1228 119.591 89.5386 117.301C89.4342 116.914 88.9543 116.997 88.8604 117.363Z" fill="#73D5A8"/>
<path d="M88.8604 117.363C88.3492 119.424 88.4431 119.444 87.9423 121.505C87.431 123.565 86.972 123.45 86.4712 125.51C85.9599 127.571 86.0538 127.592 85.553 129.652C85.5426 129.715 85.8139 129.756 85.8243 129.809C86.3564 131.921 86.0225 132.005 86.5651 134.118C87.1076 136.23 87.1702 136.209 87.7127 138.322C88.2553 140.434 88.4744 140.382 89.0065 142.495C89.549 144.607 89.309 144.67 89.8516 146.783C89.9455 147.138 90.6654 147.18 90.7801 146.824C91.3435 145.005 90.9471 144.879 91.5105 143.07C92.0843 141.25 92.2199 141.292 92.7938 139.483C93.3676 137.673 93.6389 137.757 94.2127 135.937C94.2336 135.875 94.2336 135.707 94.2127 135.644C93.6284 133.354 93.2633 133.448 92.679 131.158C92.0947 128.867 92.5225 128.752 91.9382 126.462C91.354 124.172 91.2288 124.203 90.6445 121.902C90.0602 119.612 90.1228 119.591 89.5386 117.301C89.4342 116.914 88.9543 116.997 88.8604 117.363Z" stroke="#73D5A8" stroke-width="1.03608" stroke-miterlimit="10"/>
<path d="M103.937 122.269C104.083 123.283 103.791 123.639 102.779 123.796C101.767 123.942 100.995 123.744 100.849 122.729C100.703 121.715 101.381 121.296 102.393 121.15C103.405 121.004 103.791 121.265 103.937 122.269Z" stroke="black" stroke-width="1.03608" stroke-miterlimit="10" stroke-linecap="round" stroke-linejoin="round"/>
<path d="M103.258 140.497C102.424 140.278 102.246 139.922 102.476 139.085C102.695 138.249 103.112 137.715 103.947 137.945C104.782 138.165 104.876 138.834 104.646 139.671C104.417 140.508 104.083 140.727 103.258 140.497Z" stroke="black" stroke-width="1.03608" stroke-miterlimit="10" stroke-linecap="round" stroke-linejoin="round"/>
<path d="M90.3837 134.944C89.9873 134.881 90.029 134.651 90.1438 133.992C90.2585 133.333 90.3211 132.863 90.7176 132.926C91.1141 132.988 91.0306 133.469 90.9158 134.128C90.8115 134.777 90.7802 135.007 90.3837 134.944Z" stroke="black" stroke-width="1.03608" stroke-miterlimit="10" stroke-linecap="round" stroke-linejoin="round"/>
<path d="M87.3991 130.248C87.0757 130.196 87.1905 129.976 87.2948 129.317C87.3991 128.658 87.42 128.177 87.733 128.229C88.046 128.282 87.8999 128.742 87.7956 129.401C87.6913 130.06 87.7226 130.3 87.3991 130.248Z" stroke="black" stroke-width="1.03608" stroke-miterlimit="10" stroke-linecap="round" stroke-linejoin="round"/>
<path d="M107.504 116.966C107.65 117.938 107.358 118.283 106.388 118.43C105.417 118.576 104.676 118.377 104.541 117.415C104.395 116.443 105.052 116.045 106.012 115.899C106.972 115.752 107.358 115.993 107.504 116.966Z" stroke="black" stroke-width="1.03608" stroke-miterlimit="10" stroke-linecap="round" stroke-linejoin="round"/>
<path d="M97.791 119.455C97.9371 120.427 97.6449 120.773 96.6746 120.919C95.7043 121.065 94.9636 120.867 94.8279 119.905C94.6819 118.932 95.3392 118.535 96.299 118.388C97.2798 118.242 97.6554 118.482 97.791 119.455Z" stroke="black" stroke-width="1.03608" stroke-miterlimit="10" stroke-linecap="round" stroke-linejoin="round"/>
<path d="M109.884 125.96C110.03 126.933 109.738 127.278 108.767 127.424C107.797 127.571 107.056 127.372 106.921 126.41C106.775 125.437 107.432 125.04 108.392 124.893C109.362 124.747 109.738 124.998 109.884 125.96Z" stroke="black" stroke-width="1.03608" stroke-miterlimit="10" stroke-linecap="round" stroke-linejoin="round"/>
<path d="M100.201 128.574C100.347 129.547 100.055 129.892 99.0848 130.038C98.1145 130.185 97.3737 129.986 97.2381 129.024C97.092 128.051 97.7493 127.654 98.7092 127.507C99.6795 127.361 100.055 127.612 100.201 128.574Z" stroke="black" stroke-width="1.03608" stroke-miterlimit="10" stroke-linecap="round" stroke-linejoin="round"/>
<path d="M89.6846 117.896C90.1854 119.873 90.2584 119.852 90.7696 121.829C91.2704 123.805 90.9053 123.9 91.4061 125.876C91.9069 127.853 91.9799 127.842 92.4911 129.819C92.9919 131.796 93.211 131.743 93.7223 133.72C94.004 134.829 94.9951 135.665 96.0698 135.393C98.2608 134.829 98.2503 134.776 100.452 134.211C102.653 133.647 102.601 133.469 104.802 132.915C107.004 132.35 107.046 132.538 109.247 131.973C111.449 131.409 111.449 131.43 113.65 130.875" stroke="black" stroke-width="1.03608" stroke-miterlimit="10" stroke-linecap="round" stroke-linejoin="round"/>
<path d="M94.5885 135.717C94.2859 135.8 94.119 135.999 94.0251 136.302C93.2426 138.823 93.0757 138.771 92.2932 141.281C91.5107 143.801 91.542 143.812 90.749 146.322" stroke="black" stroke-width="1.03608" stroke-miterlimit="10" stroke-linecap="round" stroke-linejoin="round"/>
<path d="M151.898 188.554C151.898 188.554 147.506 169.206 137.219 150.736" stroke="black" stroke-width="1.03608" stroke-miterlimit="10" stroke-linecap="round" stroke-linejoin="round"/>
<path d="M158.158 92.2635C158.158 92.2635 163.218 88.9482 164.961 87.9965C166.703 87.0448 169.249 88.3834 166.703 90.3182C164.283 92.1589 159.087 94.8885 159.087 94.8885" fill="white"/>
<path d="M158.158 92.2635C158.158 92.2635 163.218 88.9482 164.961 87.9965C166.703 87.0448 169.249 88.3834 166.703 90.3182C164.283 92.1589 159.087 94.8885 159.087 94.8885" stroke="#20222A" stroke-width="1.03608" stroke-miterlimit="10" stroke-linecap="round" stroke-linejoin="round"/>
<path d="M63.769 116.213L72.5643 125.113L56.5908 133.448" fill="white"/>
<path d="M63.769 116.213L72.5643 125.113L56.5908 133.448" stroke="#20222A" stroke-width="1.03608" stroke-miterlimit="10" stroke-linecap="round" stroke-linejoin="round"/>
<path d="M59.2506 110.891L49.5059 140.32L76.8412 113.84L63.7682 116.214L59.2506 110.891Z" fill="white" stroke="#20222A" stroke-width="1.03608" stroke-miterlimit="10" stroke-linecap="round" stroke-linejoin="round"/>
<path d="M63.7682 116.213L49.5059 140.319" stroke="#20222A" stroke-width="1.03608" stroke-miterlimit="10" stroke-linecap="round" stroke-linejoin="round"/>
<path d="M88.5577 28.4998C101.192 22.4862 107.119 51.6859 99.0432 62.4371C90.9678 73.1882 73.8362 35.4964 88.5577 28.4998Z" fill="white" stroke="black" stroke-width="1.03608" stroke-miterlimit="10" stroke-linecap="round" stroke-linejoin="round"/>
<path d="M96.6855 64.4541C96.6855 64.4541 99.4817 66.7968 97.5515 67.5602" stroke="black" stroke-width="1.03608" stroke-miterlimit="10" stroke-linecap="round" stroke-linejoin="round"/>
<path d="M95.7264 64.9971C95.7264 64.9971 95.0273 67.9463 96.2689 68.1764C97.5 68.4065 97.114 66.3357 97.114 66.3357" stroke="black" stroke-width="1.03608" stroke-miterlimit="10" stroke-linecap="round" stroke-linejoin="round"/>
<path d="M97.5518 67.5508C97.5518 67.5508 101.871 75.0285 99.6384 81.5231C97.0927 88.9276 107.13 98.497 107.13 98.497" stroke="black" stroke-width="1.03608" stroke-miterlimit="10" stroke-linecap="round" stroke-linejoin="round"/>
<path d="M173.015 13.9516L171.262 40.2334C171.127 42.3878 169.353 44.0611 167.204 44.0925C160.036 44.1762 155.017 40.2857 152.273 37.3992C150.782 35.82 150.74 33.3727 152.19 31.7621L169.593 12.4979C167.83 10.8978 167.183 8.3041 168.195 5.9928C169.635 2.74026 173.745 1.48526 176.802 3.74426C178.586 5.05155 179.452 7.36285 178.952 9.52772C178.263 12.4351 175.675 14.1398 173.015 13.9516Z" fill="white" stroke="black" stroke-width="1.03608" stroke-miterlimit="10" stroke-linecap="round" stroke-linejoin="round"/>
<path d="M167.194 44.0922C160.026 44.1758 155.008 40.2853 152.264 37.3988C150.772 35.8196 150.73 33.3724 152.18 31.7618C152.18 31.7618 164.565 29.4819 171.252 40.233C171.127 42.3874 169.343 44.0608 167.194 44.0922Z" fill="black"/>
<path d="M237.585 87.6786C247.833 85.1175 255.405 80.0837 254.498 76.4352C253.59 72.7867 244.547 71.9052 234.298 74.4663C224.05 77.0273 216.478 82.0612 217.385 85.7097C218.293 89.3582 227.336 90.2397 237.585 87.6786Z" fill="white" stroke="black" stroke-width="1.03608" stroke-miterlimit="10" stroke-linecap="round" stroke-linejoin="round"/>
<path d="M236.34 84.6407C243.121 82.9459 248.17 79.7637 247.615 77.5332C247.06 75.3026 241.112 74.8683 234.331 76.5631C227.549 78.2579 222.501 81.4401 223.055 83.6706C223.61 85.9012 229.558 86.3355 236.34 84.6407Z" stroke="#73D5A8" stroke-width="1.03608" stroke-miterlimit="10" stroke-linecap="round" stroke-linejoin="round"/>
<path d="M236.142 81.8008C239.649 80.9088 242.309 79.4596 242.082 78.5638C241.855 77.668 238.828 77.6649 235.321 78.5568C231.813 79.4488 229.154 80.8981 229.38 81.7938C229.607 82.6896 232.634 82.6927 236.142 81.8008Z" fill="#73D5A8"/>
<path d="M262.659 154.783C259.227 163.464 249.461 167.427 241.417 163.955C233.373 160.483 229.356 150.589 232.788 141.909C236.221 133.229 245.674 129.349 253.718 132.831C261.762 136.303 266.092 146.103 262.659 154.783Z" fill="#73D5A8"/>
<path d="M262.659 154.783C259.227 163.464 249.461 167.427 241.417 163.955C233.373 160.483 229.356 150.589 232.788 141.909C236.221 133.229 245.674 129.349 253.718 132.831C261.762 136.303 266.092 146.103 262.659 154.783Z" stroke="#73D5A8" stroke-width="1.03608" stroke-miterlimit="10"/>
<path d="M253.717 138.353C253.717 138.353 260.05 150.631 251.099 164.676" stroke="black" stroke-width="1.03608" stroke-miterlimit="10" stroke-linecap="round" stroke-linejoin="round"/>
<path d="M253.425 138.427C253.425 138.427 239.663 142.798 237.128 161.038" stroke="black" stroke-width="1.03608" stroke-miterlimit="10" stroke-linecap="round" stroke-linejoin="round"/>
<path d="M254.26 137.966C254.26 137.966 255.887 137.14 258.6 136.596" stroke="black" stroke-width="1.03608" stroke-miterlimit="10" stroke-linecap="round" stroke-linejoin="round"/>
<path d="M254.708 138.562C255.553 138.802 262.251 143.623 263.503 151.927" stroke="black" stroke-width="1.03608" stroke-miterlimit="10" stroke-linecap="round" stroke-linejoin="round"/>
<path d="M251.255 132.224C252.194 133.907 253.091 135.748 253.947 137.777" stroke="black" stroke-width="1.03608" stroke-miterlimit="10" stroke-linecap="round" stroke-linejoin="round"/>
<path d="M253.582 138.122C253.676 137.997 246.206 132.077 236.951 136.072" stroke="black" stroke-width="1.03608" stroke-miterlimit="10" stroke-linecap="round" stroke-linejoin="round"/>
<path d="M171.044 6.32778C171.43 5.85715 172.014 5.44928 172.88 5.27148" stroke="black" stroke-width="1.03608" stroke-miterlimit="10" stroke-linecap="round" stroke-linejoin="round"/>
<path d="M234.457 74.8296C233.08 61.3279 224.994 40.6309 224.994 40.6309" stroke="black" stroke-width="1.03608" stroke-miterlimit="10" stroke-linecap="round" stroke-linejoin="round"/>
<path d="M222.47 44.301L226.925 45.3678L228.938 41.54" stroke="black" stroke-width="1.03608" stroke-miterlimit="10" stroke-linecap="round" stroke-linejoin="round"/>
<path d="M223.597 47.7837L228.073 48.6726L230.222 45.2109" stroke="black" stroke-width="1.03608" stroke-miterlimit="10" stroke-linecap="round" stroke-linejoin="round"/>
<path d="M237.118 72.1104C235.804 74.4739 234.844 79.3998 234.844 79.3998C234.239 76.7852 231.213 73.3654 231.213 73.3654L234.364 73.7419L237.118 72.1104Z" fill="black" stroke="black" stroke-width="1.03608" stroke-miterlimit="10" stroke-linecap="round" stroke-linejoin="round"/>
<path d="M156.365 91.1754C156.365 91.1754 154.257 90.3492 152.254 92.5873" stroke="#20222A" stroke-width="1.03608" stroke-miterlimit="10" stroke-linecap="round" stroke-linejoin="round"/>
<path d="M224.16 50.9109L228.803 51.9567L231.578 48.2021" stroke="black" stroke-width="1.03608" stroke-miterlimit="10" stroke-linecap="round" stroke-linejoin="round"/>
</svg>
